<svg width="1080" height="1920" viewBox="0 0 1080 1920" xmlns="http://www.w3.org/2000/svg" font-family="Inter, 'Helvetica Neue', Helvetica, Arial, sans-serif">
  <!-- Background -->
  <rect width="1080" height="1920" fill="#f9fafb"/>

  <!-- Phone Screen Mockup -->
  <rect x="40" y="80" width="1000" height="1760" rx="60" fill="white" stroke="#e5e7eb" stroke-width="2"/>

  <!-- Headline -->
  <text x="540" y="200" font-size="64" font-weight="bold" text-anchor="middle" fill="#111827">Track Your Project History</text>

  <!-- App UI -->
  <g transform="translate(80, 300)">
    <!-- Header -->
    <text x="460" y="50" font-size="48" font-weight="bold" text-anchor="middle" fill="#111827">Historical Calculations</text>

    <!-- History List -->
    <g transform="translate(40, 120)">
      <!-- History Item 1 -->
      <rect x="0" y="0" width="920" height="200" rx="12" fill="white" stroke="#e5e7eb"/>
      <text x="30" y="60" font-size="36" font-weight="600" fill="#111827">Client A - Prototype</text>
      <text x="30" y="110" font-size="28" fill="#6b7280">Saved on: 10/04/2025</text>
      <text x="30" y="160" font-size="32" font-weight="bold" fill="#111827">Total: €45.50</text>
      <rect x="700" y="40" width="190" height="70" rx="8" fill="#f3f4f6" stroke="#e5e7eb"/>
      <text x="795" y="85" font-size="28" font-weight="500" fill="#111827" text-anchor="middle">Load</text>

      <!-- History Item 2 -->
      <rect x="0" y="240" width="920" height="200" rx="12" fill="white" stroke="#e5e7eb"/>
      <text x="30" y="300" font-size="36" font-weight="600" fill="#111827">Personal - Lithophane</text>
      <text x="30" y="350" font-size="28" fill="#6b7280">Saved on: 10/02/2025</text>
      <text x="30" y="400" font-size="32" font-weight="bold" fill="#111827">Total: €12.30</text>
      <rect x="700" y="280" width="190" height="70" rx="8" fill="#f3f4f6" stroke="#e5e7eb"/>
      <text x="795" y="325" font-size="28" font-weight="500" fill="#111827" text-anchor="middle">Load</text>

      <!-- History Item 3 -->
      <rect x="0" y="480" width="920" height="200" rx="12" fill="white" stroke="#e5e7eb"/>
      <text x="30" y="540" font-size="36" font-weight="600" fill="#111827">Batch Job - 50 Units</text>
      <text x="30" y="590" font-size="28" fill="#6b7280">Saved on: 09/28/2025</text>
      <text x="30" y="640" font-size="32" font-weight="bold" fill="#111827">Total: €875.00</text>
      <rect x="700" y="520" width="190" height="70" rx="8" fill="#f3f4f6" stroke="#e5e7eb"/>
      <text x="795" y="565" font-size="28" font-weight="500" fill="#111827" text-anchor="middle">Load</text>
    </g>
  </g>
</svg>